# xmcd CD database file
#
# Track frame offsets:
#	182
#	4610
#	8860
#	12987
#	17212
#	22285
#	27455
#	43390
#	48522
#	53645
#	57775
#	61835
#	65927
#	70222
#	74167
#	78302
#	91777
#	95720
#	99822
#	110222
#	121720
#	132617
#	144662
#	156927
#	169580
#	189915
#	202380
#	214567
#	221027
#	227362
#	233710
#	239957
#	246640
#	253522
#	267962
#	274652
#
# Disc length: 3752 seconds
#
# Revision: 0
# Processed by: cddbd v1.5.2PL0 Copyright (c) Steve Scherf et al.
# Submitted via: CDex 1.51
#
DISCID=1f0ea624
DTITLE=Philippe Fourquet - Standards à la Carte Vol.4
DYEAR=1999
DGENRE=Jazz
TTITLE0=Green Dolphin Street (déchiffrage)
TTITLE1=Green Dolphin Street (Solo)
TTITLE2=Green Dolphin Street (Duo 1)
TTITLE3=Green Dolphin Street (Duo 2)
TTITLE4=Green Dolphin Street (Trio 1)
TTITLE5=Green Dolphin Street (Trio 2)
TTITLE6=Green Dolphin Street (Trio 3)
TTITLE7=Green Dolphin Street (Quartette 1)
TTITLE8=Green Dolphin Street (Quartette 2)
TTITLE9=Freddie Freeloader (Déchiffrage)
TTITLE10=Freddie Freeloader (Solo)
TTITLE11=Freddie Freeloader (Duo 1)
TTITLE12=Freddie Freeloader (Duo 2)
TTITLE13=Freddie Freeloader (Trio 1)
TTITLE14=Freddie Freeloader (Trio 2)
TTITLE15=Freddie Freeloader (Trio 3)
TTITLE16=Freddie Freeloader (Quartette 1)
TTITLE17=Freddie Freeloader (Quartette 2)
TTITLE18=Ruby My Dear (Déchiffrage)
TTITLE19=Ruby My Dear (Solo)
TTITLE20=Ruby My Dear (Duo 1)
TTITLE21=Ruby My Dear (Duo 2)
TTITLE22=Ruby My Dear (Trio 1)
TTITLE23=Ruby My Dear (Trio 2)
TTITLE24=Ruby My Dear (Trio 3)
TTITLE25=Ruby My Dear (Quartette 1)
TTITLE26=Ruby My Dear (Quartette 2)
TTITLE27=Manha De Carnaval (Déchiffrage)
TTITLE28=Manha De Carnaval (Solo)
TTITLE29=Manha De Carnaval (Duo 1)
TTITLE30=Manha De Carnaval (Duo 2)
TTITLE31=Manha De Carnaval (Trio 1)
TTITLE32=Manha De Carnaval (Trio 2)
TTITLE33=Manha De Carnaval (Trio 3)
TTITLE34=Manha De Carnaval (Quartette 1)
TTITLE35=Manha De Carnaval (Quartette 2)
EXTD=YEAR: 1999
EXTT0=
EXTT1=
EXTT2=
EXTT3=
EXTT4=
EXTT5=
EXTT6=
EXTT7=
EXTT8=
EXTT9=
EXTT10=
EXTT11=
EXTT12=
EXTT13=
EXTT14=
EXTT15=
EXTT16=
EXTT17=
EXTT18=
EXTT19=
EXTT20=
EXTT21=
EXTT22=
EXTT23=
EXTT24=
EXTT25=
EXTT26=
EXTT27=
EXTT28=
EXTT29=
EXTT30=
EXTT31=
EXTT32=
EXTT33=
EXTT34=
EXTT35=
PLAYORDER=
